<svg width="24" height="24" viewBox="0 0 24 24" fill="none" xmlns="http://www.w3.org/2000/svg">
<path d="M2.73484 17.5786H14.092V18.8315C14.092 20.016 14.5532 21.1315 15.3915 21.974C16.2328 22.8111 17.3483 23.2723 18.5327 23.2723C20.9815 23.2723 22.9735 21.2803 22.9735 18.8315V16.5224C22.9735 16.2158 22.8539 15.9248 22.6343 15.7001C22.4134 15.4791 22.1214 15.3575 21.8121 15.3575C21.7429 15.3575 21.6748 15.3645 21.6081 15.3763V2.43568C21.6081 1.49395 20.8419 0.727692 19.9001 0.727692H2.73484C1.79312 0.727692 1.02686 1.49395 1.02686 2.43568V15.8706C1.02686 16.8123 1.79312 17.5786 2.73484 17.5786ZM17.7134 11.2947C17.6619 11.2445 17.6066 11.1994 17.5482 11.1599C17.3736 11.0413 17.172 10.9722 16.9662 10.9618C16.6546 10.9421 16.3556 11.0517 16.1215 11.2714C15.8737 11.5039 15.7316 11.8315 15.7316 12.1704V13.3053H15.1621C14.9738 13.3053 14.8205 13.152 14.8205 12.9637V9.50665C14.8205 9.31834 14.9738 9.16506 15.1621 9.16506H18.6191C18.8075 9.16506 18.9607 9.31834 18.9607 9.50665V12.9637C18.9607 13.152 18.8075 13.3053 18.6191 13.3053H18.0555V12.1233C18.0555 11.8194 17.9369 11.5282 17.7134 11.2947ZM22.1485 16.1805C22.2399 16.2741 22.2903 16.3955 22.2903 16.5224V18.8315C22.2903 20.9035 20.6047 22.5891 18.5327 22.5891C17.5303 22.5891 16.5857 22.1986 15.8747 21.4908C15.1656 20.7785 14.7752 19.834 14.7752 18.8315V17.2419C14.7752 17.2402 14.7762 17.2387 14.7762 17.237V16.588C14.7762 16.0384 15.196 15.5867 15.7316 15.5327V18.4489C15.7316 18.6376 15.8845 18.7905 16.0732 18.7905C16.2618 18.7905 16.4148 18.6376 16.4148 18.4489V15.4222C16.4148 15.4201 16.4159 15.4184 16.4159 15.4164V13.6469V12.1712C16.4159 12.0201 16.4795 11.874 16.5901 11.7702C16.685 11.6813 16.8029 11.6375 16.9283 11.6446C17.0363 11.65 17.1211 11.692 17.1789 11.7343C17.1923 11.7441 17.2025 11.7535 17.2129 11.7628C17.2172 11.7667 17.223 11.7708 17.2267 11.7745C17.3199 11.872 17.3713 11.9956 17.3713 12.1225V16.5168C17.3713 16.5185 17.3703 16.52 17.3703 16.5218V17.5907C17.3703 17.7794 17.5233 17.9323 17.7119 17.9323C17.9006 17.9323 18.0535 17.7794 18.0535 17.5907V16.533C18.0536 16.5295 18.0555 16.5266 18.0555 16.5231C18.0555 16.2575 18.27 16.0414 18.5337 16.0414C18.597 16.0414 18.6581 16.0538 18.7148 16.0777C18.7712 16.1017 18.8233 16.137 18.8685 16.1832C18.9594 16.274 19.009 16.393 19.0101 16.5184C19.0101 16.5196 19.0094 16.5205 19.0094 16.5218V17.5907C19.0094 17.7794 19.1624 17.9323 19.351 17.9323C19.5397 17.9323 19.6926 17.7794 19.6926 17.5907V16.5355C19.6928 16.5311 19.6951 16.5275 19.6951 16.5231C19.6951 16.2575 19.9098 16.0414 20.1735 16.0414C20.2379 16.0414 20.2998 16.0538 20.357 16.0777C20.414 16.1017 20.4664 16.137 20.5116 16.1832C20.6013 16.2729 20.6507 16.3933 20.6507 16.5224V17.5916C20.6507 17.7802 20.8037 17.9332 20.9923 17.9332C21.181 17.9332 21.3339 17.7802 21.3339 17.5916V16.528C21.3339 16.5263 21.3349 16.5248 21.3349 16.5231C21.3349 16.3873 21.3936 16.2547 21.492 16.1683C21.4931 16.1674 21.4934 16.166 21.4944 16.1651C21.4958 16.1638 21.4967 16.1623 21.498 16.1611C21.6722 15.9997 21.9744 16.0062 22.1485 16.1805ZM1.71005 2.43568C1.71005 1.87058 2.16974 1.41089 2.73484 1.41089H19.9001C20.4652 1.41089 20.9249 1.87058 20.9249 2.43568V15.6346C20.9046 15.617 20.8814 15.604 20.86 15.5881C20.8367 15.5707 20.8138 15.553 20.7894 15.5375C20.7526 15.5142 20.714 15.4948 20.6748 15.4759C20.6489 15.4633 20.6238 15.4496 20.5969 15.439C20.5557 15.4229 20.5127 15.4117 20.4696 15.4004C20.4425 15.3933 20.4164 15.3838 20.3887 15.3786C20.3364 15.3689 20.2825 15.3655 20.2284 15.363C20.2095 15.3621 20.1914 15.3575 20.1723 15.3575C19.852 15.3575 19.5615 15.4882 19.3511 15.6995C19.2969 15.6445 19.238 15.5956 19.1754 15.5533C18.9874 15.4259 18.7658 15.3575 18.5327 15.3575C18.3628 15.3575 18.2013 15.3945 18.0555 15.4606V13.9885H18.6191C19.1842 13.9885 19.6439 13.5288 19.6439 12.9637V9.50665C19.6439 8.94155 19.1842 8.48186 18.6191 8.48186H15.1621C14.597 8.48186 14.1373 8.94155 14.1373 9.50665V12.9637C14.1373 13.5288 14.597 13.9885 15.1621 13.9885H15.7316V14.8448C14.8182 14.8997 14.092 15.6603 14.092 16.5873V16.8954H2.73484C2.16974 16.8954 1.71005 16.4357 1.71005 15.8706V2.43568Z" fill="white"/>
<path d="M4.10145 5.50739H11.2395C11.8046 5.50739 12.2643 5.0477 12.2643 4.4826V3.54604C12.2643 2.98094 11.8046 2.52125 11.2395 2.52125H4.10145C3.53635 2.52125 3.07666 2.98094 3.07666 3.54604V4.4826C3.07666 5.0477 3.53635 5.50739 4.10145 5.50739ZM3.75986 3.54604C3.75986 3.35773 3.91314 3.20444 4.10145 3.20444H11.2395C11.4278 3.20444 11.5811 3.35773 11.5811 3.54604V4.4826C11.5811 4.67091 11.4278 4.8242 11.2395 4.8242H4.10145C3.91314 4.8242 3.75986 4.67091 3.75986 4.4826V3.54604Z" fill="white"/>
<path d="M3.75986 8.93338H4.78465C5.16144 8.93338 5.46784 8.62697 5.46784 8.25018V7.22539C5.46784 6.84859 5.16144 6.54219 4.78465 6.54219H3.75986C3.38306 6.54219 3.07666 6.84859 3.07666 7.22539V8.25018C3.07666 8.62697 3.38306 8.93338 3.75986 8.93338ZM3.75986 7.22539H4.78465L4.78515 8.25018H3.75986V7.22539Z" fill="white"/>
<path d="M8.1826 6.54219H7.15781C6.78101 6.54219 6.47461 6.84859 6.47461 7.22539V8.25018C6.47461 8.62697 6.78101 8.93338 7.15781 8.93338H8.1826C8.55939 8.93338 8.86579 8.62697 8.86579 8.25018V7.22539C8.86579 6.84859 8.55939 6.54219 8.1826 6.54219ZM7.15781 8.25018V7.22539H8.1826L8.1831 8.25018H7.15781Z" fill="white"/>
<path d="M11.581 6.54219H10.5562C10.1795 6.54219 9.87305 6.84859 9.87305 7.22539V8.25018C9.87305 8.62697 10.1795 8.93338 10.5562 8.93338H11.581C11.9578 8.93338 12.2642 8.62697 12.2642 8.25018V7.22539C12.2642 6.84859 11.9578 6.54219 11.581 6.54219ZM10.5562 8.25018V7.22539H11.581L11.5815 8.25018H10.5562Z" fill="white"/>
<path d="M3.75986 12.3594H4.78465C5.16144 12.3594 5.46784 12.053 5.46784 11.6762V10.6514C5.46784 10.2746 5.16144 9.96818 4.78465 9.96818H3.75986C3.38306 9.96818 3.07666 10.2746 3.07666 10.6514V11.6762C3.07666 12.053 3.38306 12.3594 3.75986 12.3594ZM3.75986 10.6514H4.78465L4.78515 11.6762H3.75986V10.6514Z" fill="white"/>
<path d="M8.1826 9.96818H7.15781C6.78101 9.96818 6.47461 10.2746 6.47461 10.6514V11.6762C6.47461 12.053 6.78101 12.3594 7.15781 12.3594H8.1826C8.55939 12.3594 8.86579 12.053 8.86579 11.6762V10.6514C8.86579 10.2746 8.55939 9.96818 8.1826 9.96818ZM7.15781 11.6762V10.6514H8.1826L8.1831 11.6762H7.15781Z" fill="white"/>
<path d="M11.581 9.96818H10.5562C10.1795 9.96818 9.87305 10.2746 9.87305 10.6514V11.6762C9.87305 12.053 10.1795 12.3594 10.5562 12.3594H11.581C11.9578 12.3594 12.2642 12.053 12.2642 11.6762V10.6514C12.2642 10.2746 11.9578 9.96818 11.581 9.96818ZM10.5562 11.6762V10.6514H11.581L11.5815 11.6762H10.5562Z" fill="white"/>
<path d="M3.75986 15.7854H4.78465C5.16144 15.7854 5.46784 15.4789 5.46784 15.1022V14.0774C5.46784 13.7006 5.16144 13.3942 4.78465 13.3942H3.75986C3.38306 13.3942 3.07666 13.7006 3.07666 14.0774V15.1022C3.07666 15.4789 3.38306 15.7854 3.75986 15.7854ZM3.75986 14.0774H4.78465L4.78515 15.1022H3.75986V14.0774Z" fill="white"/>
<path d="M8.1826 13.3942H7.15781C6.78101 13.3942 6.47461 13.7006 6.47461 14.0774V15.1022C6.47461 15.4789 6.78101 15.7854 7.15781 15.7854H8.1826C8.55939 15.7854 8.86579 15.4789 8.86579 15.1022V14.0774C8.86579 13.7006 8.55939 13.3942 8.1826 13.3942ZM7.15781 15.1022V14.0774H8.1826L8.1831 15.1022H7.15781Z" fill="white"/>
<path d="M11.581 13.3942H10.5562C10.1795 13.3942 9.87305 13.7006 9.87305 14.0774V15.1022C9.87305 15.4789 10.1795 15.7854 10.5562 15.7854H11.581C11.9578 15.7854 12.2642 15.4789 12.2642 15.1022V14.0774C12.2642 13.7006 11.9578 13.3942 11.581 13.3942ZM10.5562 15.1022V14.0774H11.581L11.5815 15.1022H10.5562Z" fill="white"/>
<path d="M14.4803 3.53387H19.3022C19.4908 3.53387 19.6438 3.38091 19.6438 3.19227C19.6438 3.00362 19.4908 2.85067 19.3022 2.85067H14.4803C14.2916 2.85067 14.1387 3.00362 14.1387 3.19227C14.1387 3.38091 14.2916 3.53387 14.4803 3.53387Z" fill="white"/>
<path d="M14.4803 5.37963H19.3022C19.4908 5.37963 19.6438 5.22668 19.6438 5.03803C19.6438 4.84939 19.4908 4.69643 19.3022 4.69643H14.4803C14.2916 4.69643 14.1387 4.84939 14.1387 5.03803C14.1387 5.22668 14.2916 5.37963 14.4803 5.37963Z" fill="white"/>
<path d="M14.4803 7.22539H19.3022C19.4908 7.22539 19.6438 7.07243 19.6438 6.88379C19.6438 6.69514 19.4908 6.54219 19.3022 6.54219H14.4803C14.2916 6.54219 14.1387 6.69514 14.1387 6.88379C14.1387 7.07243 14.2916 7.22539 14.4803 7.22539Z" fill="white"/>
</svg>
