<svg width="24" height="24" viewBox="0 0 24 24" fill="none" xmlns="http://www.w3.org/2000/svg">
<path d="M9.60012 11.28H4.80036C4.35156 11.28 3.9294 11.1048 3.61188 10.7863C3.30012 10.4772 3.12012 10.0442 3.12012 9.59999V4.8C3.12012 4.3512 3.29484 3.92904 3.61188 3.61128C3.92796 3.29448 4.35012 3.12 4.80036 3.12H9.60012C10.0501 3.12 10.4723 3.29448 10.7886 3.61128C11.1056 3.92928 11.2801 4.3512 11.2801 4.8V9.59999C11.2801 10.044 11.1004 10.477 10.7869 10.788C10.4706 11.1048 10.0487 11.28 9.60012 11.28ZM4.80036 4.08C4.60692 4.08 4.4262 4.15439 4.29156 4.28951C4.155 4.42583 4.08012 4.60728 4.08012 4.8V9.59999C4.08012 9.78983 4.15644 9.9744 4.28964 10.1064C4.42788 10.2449 4.6086 10.32 4.80036 10.32H9.60012C9.79188 10.32 9.9726 10.2449 10.1092 10.1081C10.2438 9.97464 10.3201 9.78983 10.3201 9.59999V4.8C10.3201 4.60728 10.2452 4.42583 10.1089 4.28951C9.97428 4.15439 9.79356 4.08 9.60012 4.08H4.80036Z" fill="white"/>
<path d="M9.60012 20.88H4.80036C4.35156 20.88 3.9294 20.7048 3.61188 20.3863C3.30012 20.0772 3.12012 19.6442 3.12012 19.2V14.4C3.12012 13.9512 3.29484 13.529 3.61188 13.2113C3.92796 12.8945 4.35012 12.72 4.80036 12.72H9.60012C10.0501 12.72 10.4723 12.8945 10.7886 13.2113C11.1056 13.5293 11.2801 13.9512 11.2801 14.4V19.2C11.2801 19.644 11.1004 20.077 10.7869 20.388C10.4706 20.7048 10.0487 20.88 9.60012 20.88ZM4.80036 13.68C4.60692 13.68 4.4262 13.7544 4.29156 13.8895C4.155 14.0258 4.08012 14.2073 4.08012 14.4V19.2C4.08012 19.3898 4.15644 19.5744 4.28964 19.7064C4.42788 19.8449 4.6086 19.92 4.80036 19.92H9.60012C9.79188 19.92 9.9726 19.8449 10.1092 19.7081C10.2438 19.5746 10.3201 19.3898 10.3201 19.2V14.4C10.3201 14.2073 10.2452 14.0258 10.1089 13.8895C9.97428 13.7544 9.79356 13.68 9.60012 13.68H4.80036Z" fill="white"/>
<path d="M19.2002 11.28H14.4005C13.9517 11.28 13.5295 11.1048 13.212 10.7863C12.9002 10.4772 12.7202 10.0442 12.7202 9.59999V4.8C12.7202 4.3512 12.8949 3.92904 13.212 3.61128C13.5281 3.29448 13.9502 3.12 14.4005 3.12H19.2002C19.6502 3.12 20.0724 3.29448 20.3887 3.61128C20.7057 3.92928 20.8802 4.3512 20.8802 4.8V9.59999C20.8802 10.044 20.7005 10.477 20.387 10.788C20.0707 11.1048 19.6488 11.28 19.2002 11.28ZM14.4005 4.08C14.207 4.08 14.0263 4.15439 13.8917 4.28951C13.7551 4.42583 13.6802 4.60728 13.6802 4.8V9.59999C13.6802 9.78983 13.7565 9.9744 13.8897 10.1064C14.028 10.2449 14.2087 10.32 14.4005 10.32H19.2002C19.392 10.32 19.5727 10.2449 19.7093 10.1081C19.8439 9.97464 19.9202 9.78983 19.9202 9.59999V4.8C19.9202 4.60728 19.8453 4.42583 19.709 4.28951C19.5744 4.15439 19.3937 4.08 19.2002 4.08H14.4005Z" fill="white"/>
<path d="M19.2002 20.88H14.4005C13.9517 20.88 13.5295 20.7048 13.212 20.3863C12.9002 20.0772 12.7202 19.6442 12.7202 19.2V14.4C12.7202 13.9512 12.8949 13.529 13.212 13.2113C13.5281 12.8945 13.9502 12.72 14.4005 12.72H19.2002C19.6502 12.72 20.0724 12.8945 20.3887 13.2113C20.7057 13.5293 20.8802 13.9512 20.8802 14.4V19.2C20.8802 19.644 20.7005 20.077 20.387 20.388C20.0707 20.7048 19.6488 20.88 19.2002 20.88ZM14.4005 13.68C14.207 13.68 14.0263 13.7544 13.8917 13.8895C13.7551 14.0258 13.6802 14.2073 13.6802 14.4V19.2C13.6802 19.3898 13.7565 19.5744 13.8897 19.7064C14.028 19.8449 14.2087 19.92 14.4005 19.92H19.2002C19.392 19.92 19.5727 19.8449 19.7093 19.7081C19.8439 19.5746 19.9202 19.3898 19.9202 19.2V14.4C19.9202 14.2073 19.8453 14.0258 19.709 13.8895C19.5744 13.7544 19.3937 13.68 19.2002 13.68H14.4005Z" fill="white"/>
</svg>
