<svg width="6" height="18" viewBox="0 0 6 18" fill="none" xmlns="http://www.w3.org/2000/svg">
<path d="M0.922852 9.00023C0.922852 10.1453 1.8547 11.0772 2.99977 11.0772C4.14485 11.0772 5.0767 10.1453 5.0767 9.00023C5.0767 7.85516 4.14485 6.92331 2.99977 6.92331C1.8547 6.92331 0.922852 7.85516 0.922852 9.00023Z" fill="#5F6368"/>
<path d="M0.922852 15.923C0.922852 17.0681 1.8547 17.9999 2.99977 17.9999C4.14485 17.9999 5.0767 17.0681 5.0767 15.923C5.0767 14.7779 4.14485 13.8461 2.99977 13.8461C1.8547 13.8461 0.922852 14.7779 0.922852 15.923Z" fill="#5F6368"/>
<path d="M0.922852 2.07692C0.922852 3.222 1.8547 4.15385 2.99977 4.15385C4.14485 4.15385 5.0767 3.222 5.0767 2.07692C5.0767 0.931846 4.14485 0 2.99977 0C1.8547 0 0.922852 0.931846 0.922852 2.07692Z" fill="#5F6368"/>
</svg>
