<svg width="65" height="65" viewBox="0 0 65 65" fill="none" xmlns="http://www.w3.org/2000/svg">
<rect width="65" height="65" rx="32.5" fill="white"/>
<path d="M51.0087 24.2354C50.6273 23.7156 50.1271 23.3516 49.509 23.1567C48.9039 22.9617 48.3118 22.9487 47.7197 23.1177C47.1411 23.2996 46.6678 23.6375 46.2859 24.1314C45.66 24.9515 44.8012 26.0526 43.7171 27.4255L43.7223 27.4283C43.5293 27.6682 43.3393 27.9043 43.1401 28.1517V29.1654C43.1401 29.3863 43.219 29.5683 43.3767 29.7243C43.5345 29.8802 43.7187 29.9582 43.9424 29.9582H44.9424C45.3523 29.4498 45.7452 28.9619 46.1302 28.4835L46.124 28.4785C47.1001 27.238 47.8121 26.3159 48.2459 25.7299C48.3647 25.574 48.5355 25.522 48.7327 25.587C48.9299 25.652 49.0352 25.782 49.0352 25.9769V36.9332C49.0352 37.531 48.8251 38.0379 48.3907 38.4669C47.9569 38.8958 47.4436 39.1037 46.8386 39.1037H37.5646C37.0124 39.1037 36.5516 38.9217 36.1702 38.5448C35.7623 38.142 35.5521 37.6091 35.5521 36.9332V24.3004C35.5521 23.9495 35.4203 23.6636 35.1707 23.4166C34.9206 23.1696 34.631 23.0397 34.2761 23.0397C33.9211 23.0397 33.6186 23.1697 33.3684 23.4166C33.1183 23.6635 33 23.9495 33 24.3004V36.9332C33 38.2199 33.4603 39.3246 34.3814 40.2474C35.3155 41.1702 36.4333 41.6251 37.7488 41.6251H46.8386C48.1406 41.6251 49.2589 41.1702 50.193 40.2474C51.1271 39.3246 51.5874 38.2199 51.5874 36.9332V25.977C51.5874 25.3402 51.3902 24.7553 51.0087 24.2354Z" fill="black"/>
<path d="M26.8392 23C28.1566 23 29.2653 23.4669 30.1915 24.3878C31.1176 25.3087 31.5871 26.4111 31.5871 27.7211V29.3553C31.5871 30.6653 31.1175 31.7808 30.1915 32.7016C29.2653 33.6226 28.1566 34.0765 26.8392 34.0765H16.0131C15.8826 34.0765 15.7783 34.1284 15.687 34.2192C15.5957 34.31 15.5436 34.4137 15.5436 34.5434V40.354C15.5436 40.7042 15.4262 41.0026 15.1784 41.2489C14.9306 41.4954 14.6175 41.6251 14.2653 41.6251C13.9131 41.6251 13.6131 41.4954 13.3653 41.2489C13.1175 41.0026 13.0001 40.7042 13.0001 40.354V34.5434C13.0001 33.7133 13.2871 33.0129 13.874 32.4293C14.461 31.8457 15.1784 31.5473 16.0132 31.5473H26.8394C27.4525 31.5473 27.9612 31.3268 28.3915 30.8988C28.822 30.4707 29.0437 29.9649 29.0437 29.3553V27.7212C29.0437 27.1116 28.822 26.6057 28.3915 26.1777C27.9611 25.7497 27.4525 25.5292 26.8394 25.5292H15.8174L21.4 30.2633H17.4739L13.9522 27.2801C13.5479 26.9688 13.2609 26.5797 13.1174 26.0999C12.9609 25.62 12.9609 25.1271 13.1174 24.6472C13.2739 24.1543 13.5609 23.7523 13.9913 23.454C14.4087 23.1556 14.8783 23 15.4 23H26.8392Z" fill="black"/>
</svg>
