<svg width="36" height="36" viewBox="0 0 36 36" fill="none" xmlns="http://www.w3.org/2000/svg">
<path d="M18 34.6673C27.2048 34.6673 34.6667 27.2054 34.6667 18.0007C34.6667 8.7959 27.2048 1.33398 18 1.33398C8.79529 1.33398 1.33337 8.7959 1.33337 18.0007C1.33337 27.2054 8.79529 34.6673 18 34.6673Z" stroke="white" stroke-width="2" stroke-linecap="round" stroke-linejoin="round"/>
<path d="M13.15 13.0009C13.5419 11.8871 14.3153 10.9478 15.3333 10.3495C16.3513 9.75121 17.5482 9.53251 18.712 9.73214C19.8758 9.93176 20.9314 10.5368 21.6918 11.4402C22.4523 12.3435 22.8684 13.4868 22.8667 14.6676C22.8667 18.0009 17.8667 19.6676 17.8667 19.6676" stroke="white" stroke-width="2" stroke-linecap="round" stroke-linejoin="round"/>
<path d="M18 26.334H18.0167" stroke="white" stroke-width="2" stroke-linecap="round" stroke-linejoin="round"/>
</svg>
