<svg width="37" height="37" viewBox="0 0 37 37" fill="none" xmlns="http://www.w3.org/2000/svg">
<circle cx="18.5" cy="18.5" r="18.5" fill="#018294"/>
<path d="M12.8938 26.2193C12.7703 26.2191 12.6481 26.1932 12.5352 26.1432C12.4222 26.0932 12.3209 26.0203 12.2377 25.9291C12.1529 25.8386 12.0882 25.7312 12.0479 25.614C12.0075 25.4968 11.9924 25.3724 12.0035 25.2489L12.2216 22.8507L22.2972 12.7787L25.446 15.9265L15.373 25.9976L12.9748 26.2157C12.9478 26.2182 12.9208 26.2194 12.8938 26.2193ZM26.0745 15.2971L22.9266 12.1493L24.8148 10.2611C24.8975 10.1783 24.9956 10.1127 25.1037 10.0679C25.2118 10.0231 25.3276 10 25.4446 10C25.5616 10 25.6775 10.0231 25.7855 10.0679C25.8936 10.1127 25.9918 10.1783 26.0745 10.2611L27.9626 12.1493C28.0454 12.2319 28.1111 12.3301 28.1559 12.4382C28.2007 12.5463 28.2237 12.6621 28.2237 12.7791C28.2237 12.8961 28.2007 13.0119 28.1559 13.12C28.1111 13.2281 28.0454 13.3263 27.9626 13.4089L26.0753 15.2962L26.0745 15.2971Z" fill="white"/>
</svg>
