<svg width="130" height="130" viewBox="0 0 130 130" fill="none" xmlns="http://www.w3.org/2000/svg">
<circle cx="65" cy="65" r="64.5" fill="#F1F3F4" stroke="#C4C4C4"/>
<path d="M65.0013 67.1875C55.7555 67.1875 48.2305 59.6625 48.2305 50.4167C48.2305 41.1708 55.7555 33.6458 65.0013 33.6458C74.2471 33.6458 81.7721 41.1708 81.7721 50.4167C81.7721 59.6625 74.2471 67.1875 65.0013 67.1875ZM65.0013 38.0208C58.1763 38.0208 52.6055 43.5917 52.6055 50.4167C52.6055 57.2417 58.1763 62.8125 65.0013 62.8125C71.8263 62.8125 77.3971 57.2417 77.3971 50.4167C77.3971 43.5917 71.8263 38.0208 65.0013 38.0208Z" fill="#C4C4C4"/>
<path d="M90.0554 96.3542C88.8596 96.3542 87.8679 95.3625 87.8679 94.1667C87.8679 84.1042 77.6016 75.9375 65.0016 75.9375C52.4014 75.9375 42.1348 84.1042 42.1348 94.1667C42.1348 95.3625 41.1431 96.3542 39.9473 96.3542C38.7514 96.3542 37.7598 95.3625 37.7598 94.1667C37.7598 81.7125 49.9806 71.5625 65.0016 71.5625C80.0224 71.5625 92.2429 81.7125 92.2429 94.1667C92.2429 95.3625 91.2513 96.3542 90.0554 96.3542Z" fill="#C4C4C4"/>
</svg>
