<svg width="24" height="24" viewBox="0 0 24 24" fill="none" xmlns="http://www.w3.org/2000/svg">
<g clip-path="url(#clip0_7_596)">
<path d="M8.88379 16.0217H15.1163C15.2991 16.0217 15.4475 15.8732 15.4475 15.6905V14.0606C15.4475 12.9797 14.5678 12.1 13.4864 12.1H10.5136C9.43228 12.1 8.55254 12.9797 8.55254 14.0606V15.6905C8.55254 15.8732 8.70102 16.0217 8.88379 16.0217ZM14.785 14.0606V15.3592H9.21504V14.0606C9.21504 13.3448 9.79781 12.762 10.5136 12.762H13.4864C14.2027 12.762 14.785 13.3448 14.785 14.0606Z" fill="white" stroke="white" stroke-width="0.1"/>
<path d="M9.85918 15.6905C9.85918 15.8738 10.0077 16.0217 10.1904 16.0217C10.3732 16.0217 10.5217 15.8732 10.5217 15.6905V14.5214C10.5217 14.3381 10.3731 14.1902 10.1904 14.1902C10.0077 14.1902 9.85918 14.3381 9.85918 14.5214V15.6905Z" fill="white" stroke="white" stroke-width="0.1"/>
<path d="M13.4793 15.6905C13.4793 15.8737 13.6273 16.0217 13.8101 16.0217C13.9934 16.0217 14.1413 15.8732 14.1413 15.6905V14.5214C14.1413 14.3382 13.9933 14.1902 13.8101 14.1902C13.6273 14.1902 13.4793 14.3382 13.4793 14.5214V15.6905Z" fill="white" stroke="white" stroke-width="0.1"/>
<path d="M10.2215 9.75703C10.2215 10.7376 11.0192 11.5358 12.0002 11.5358C12.9813 11.5358 13.779 10.7376 13.779 9.75703C13.779 8.77598 12.9813 7.97828 12.0002 7.97828C11.0192 7.97828 10.2215 8.77598 10.2215 9.75703ZM10.8835 9.75703C10.8835 9.14152 11.3847 8.64031 12.0002 8.64031C12.6157 8.64031 13.1165 9.14149 13.1165 9.75703C13.1165 10.3725 12.6157 10.8733 12.0002 10.8733C11.3847 10.8733 10.8835 10.3725 10.8835 9.75703Z" fill="white" stroke="white" stroke-width="0.1"/>
<path d="M5.471 12C5.471 15.6 8.40011 18.5286 12.0001 18.5286C15.6 18.5286 18.5291 15.6 18.5291 12C18.5291 8.40004 15.6 5.47094 12.0001 5.47094C8.4001 5.47094 5.471 8.40004 5.471 12ZM6.1335 12C6.1335 8.76511 8.76517 6.13344 12.0001 6.13344C15.2349 6.13344 17.8666 8.76511 17.8666 12C17.8666 15.2349 15.2349 17.8666 12.0001 17.8666C8.76517 17.8666 6.1335 15.2349 6.1335 12Z" fill="white" stroke="white" stroke-width="0.1"/>
<path d="M11.6687 5.80219C11.6687 5.98548 11.8173 6.13344 12 6.13344C12.1827 6.13344 12.3313 5.98548 12.3313 5.80219V2.09719C12.3313 1.91389 12.1827 1.76594 12 1.76594C11.8173 1.76594 11.6687 1.91389 11.6687 2.09719V5.80219Z" fill="white" stroke="white" stroke-width="0.1"/>
<path d="M18.8037 4.79859C18.9138 4.68891 19.092 4.68891 19.2016 4.79859C19.3113 4.90875 19.3113 5.08641 19.2016 5.19656L16.5813 7.81641C16.5265 7.87125 16.4543 7.89891 16.3826 7.89891C16.3109 7.89891 16.2387 7.87125 16.1838 7.81641C16.0741 7.70672 16.0741 7.52859 16.1838 7.41891L18.8037 4.79859ZM18.7683 4.76324L16.1485 7.38355L16.1485 7.38355C16.0193 7.51277 16.0193 7.72255 16.1485 7.85176C16.213 7.91631 16.2981 7.94891 16.3826 7.94891C16.4671 7.94891 16.5521 7.91631 16.6167 7.85176L19.237 5.23192L19.2371 5.23184C19.3662 5.10218 19.3662 4.89298 19.2371 4.76331L19.237 4.76324C19.1077 4.63398 18.898 4.63409 18.7684 4.76316L18.7683 4.76324Z" fill="white" stroke="white" stroke-width="0.1"/>
<path d="M18.1978 12.3313H21.9028C22.086 12.3313 22.234 12.1827 22.234 12C22.234 11.8173 22.086 11.6687 21.9028 11.6687H18.1978C18.0145 11.6687 17.8665 11.8173 17.8665 12C17.8665 12.1827 18.0145 12.3313 18.1978 12.3313Z" fill="white" stroke="white" stroke-width="0.1"/>
<path d="M18.7683 19.2368L18.7685 19.2369C18.8335 19.3014 18.9181 19.3334 19.0029 19.3334C19.0873 19.3334 19.1718 19.3014 19.2368 19.2369L19.2371 19.2367C19.3662 19.107 19.3662 18.8978 19.2371 18.7682L19.237 18.7681L16.6167 16.1482C16.6167 16.1482 16.6167 16.1482 16.6167 16.1482C16.4875 16.019 16.2777 16.019 16.1485 16.1482C16.0193 16.2774 16.0193 16.4872 16.1485 16.6164C16.1485 16.6164 16.1485 16.6164 16.1485 16.6164L18.7683 19.2368Z" fill="white" stroke="white" stroke-width="0.1"/>
<path d="M11.6687 21.9028C11.6687 22.0861 11.8173 22.2341 12 22.2341C12.1827 22.2341 12.3313 22.0861 12.3313 21.9028V18.1978C12.3313 18.0145 12.1827 17.8666 12 17.8666C11.8173 17.8666 11.6687 18.0145 11.6687 18.1978V21.9028Z" fill="white" stroke="white" stroke-width="0.1"/>
<path d="M7.85174 16.6164C7.98096 16.4872 7.98096 16.2774 7.85174 16.1482C7.72253 16.019 7.51275 16.019 7.38353 16.1482C7.38353 16.1482 7.38353 16.1482 7.38353 16.1482L4.76322 18.7681L4.76322 18.7681C4.63396 18.8973 4.63407 19.1071 4.76314 19.2367L4.76337 19.2369C4.82839 19.3014 4.91291 19.3334 4.99732 19.3334C5.08203 19.3334 5.16717 19.3015 5.2319 19.2368L5.2319 19.2368L7.85174 16.6164ZM7.85174 16.6164L7.81647 16.5812L7.85174 16.6164L7.85174 16.6164Z" fill="white" stroke="white" stroke-width="0.1"/>
<path d="M2.09717 12.3313H5.80217C5.98546 12.3313 6.13342 12.1827 6.13342 12C6.13342 11.8173 5.98546 11.6687 5.80217 11.6687H2.09717C1.91387 11.6687 1.76592 11.8173 1.76592 12C1.76592 12.1827 1.91387 12.3313 2.09717 12.3313Z" fill="white" stroke="white" stroke-width="0.1"/>
<path d="M4.76314 5.23184L4.76322 5.23192L7.38353 7.85176C7.38353 7.85176 7.38353 7.85176 7.38353 7.85176C7.44806 7.91628 7.53262 7.94891 7.61764 7.94891C7.70214 7.94891 7.78719 7.91631 7.85174 7.85176C7.98095 7.72255 7.98096 7.51277 7.85174 7.38355C7.85174 7.38355 7.85174 7.38355 7.85174 7.38355L5.2319 4.76324L5.23182 4.76316C5.1022 4.63409 4.89247 4.63398 4.76322 4.76324L4.76314 4.76331C4.63403 4.89298 4.63403 5.10218 4.76314 5.23184Z" fill="white" stroke="white" stroke-width="0.1"/>
<path d="M10.763 1.19062C10.763 1.87308 11.3179 2.42797 12.0003 2.42797C12.6828 2.42797 13.2377 1.87308 13.2377 1.19062C13.2377 0.508166 12.6828 -0.0467194 12.0003 -0.0467194C11.3179 -0.0467194 10.763 0.508166 10.763 1.19062ZM11.425 1.19062C11.425 0.873707 11.6834 0.615312 12.0003 0.615312C12.3172 0.615312 12.5756 0.873707 12.5756 1.19062C12.5756 1.50754 12.3172 1.76594 12.0003 1.76594C11.6834 1.76594 11.425 1.50754 11.425 1.19062Z" fill="white" stroke="white" stroke-width="0.1"/>
<path d="M18.7682 5.2319L18.7682 5.23196C19.0021 5.46538 19.313 5.59391 19.6435 5.59391C19.9737 5.59391 20.2845 5.46537 20.5184 5.23196L20.5184 5.23192C21.0011 4.74927 21.0011 3.96433 20.5184 3.48168C20.285 3.24824 19.9737 3.11922 19.6435 3.11922C19.3129 3.11922 19.0021 3.24776 18.7682 3.48168L18.7682 3.48169C18.286 3.96434 18.286 4.74925 18.7682 5.2319ZM20.4831 5.19656C20.2585 5.42063 19.9604 5.54391 19.6435 5.54391C19.3262 5.54391 19.0281 5.42063 18.8035 5.19656H20.4831ZM19.2369 3.94989C19.3456 3.84119 19.4899 3.78172 19.6435 3.78172C19.7972 3.78172 19.9415 3.84119 20.0502 3.94989C20.2744 4.17411 20.2744 4.53902 20.0502 4.76324C19.9414 4.87201 19.7971 4.93188 19.6435 4.93188C19.4895 4.93188 19.3456 4.87202 19.2369 4.76324C19.0126 4.53902 19.0126 4.17411 19.2369 3.94989Z" fill="white" stroke="white" stroke-width="0.1"/>
<path d="M21.5716 12C21.5716 12.6825 22.127 13.2373 22.8094 13.2373C23.4919 13.2373 24.0467 12.6825 24.0467 12C24.0467 11.3175 23.4919 10.7627 22.8094 10.7627C22.127 10.7627 21.5716 11.3175 21.5716 12ZM22.2341 12C22.2341 11.6831 22.492 11.4247 22.8094 11.4247C23.1263 11.4247 23.3842 11.683 23.3842 12C23.3842 12.317 23.1263 12.5753 22.8094 12.5753C22.492 12.5753 22.2341 12.3169 22.2341 12Z" fill="white" stroke="white" stroke-width="0.1"/>
<path d="M18.7682 20.5183L18.7682 20.5184C19.0021 20.7517 19.3129 20.8808 19.6435 20.8808C19.9737 20.8808 20.2845 20.7517 20.5184 20.5184L20.5184 20.5183C21.0011 20.0357 21.0011 19.2507 20.5184 18.7681C20.285 18.5347 19.9737 18.4056 19.6435 18.4056C19.3129 18.4056 19.0021 18.5347 18.7682 18.768L18.7682 18.7681C18.286 19.2508 18.286 20.0357 18.7682 20.5183ZM19.6435 20.8308C19.3262 20.8308 19.0281 20.707 18.8035 20.483V18.8034C19.0281 18.5794 19.3262 18.4556 19.6435 18.4556C19.9604 18.4556 20.259 18.5794 20.4831 18.8034C20.9462 19.2666 20.9462 20.0198 20.4831 20.483C20.2585 20.707 19.9604 20.8308 19.6435 20.8308ZM19.2369 19.2368C19.3456 19.128 19.49 19.0681 19.6435 19.0681C19.7971 19.0681 19.9414 19.128 20.0502 19.2368C20.2744 19.461 20.2744 19.8259 20.0502 20.0501L20.0856 20.0855L20.0503 20.05C19.9415 20.1584 19.7971 20.2183 19.6435 20.2183C19.4894 20.2183 19.3456 20.1588 19.2369 20.0501C19.0126 19.8259 19.0126 19.461 19.2369 19.2368Z" fill="white" stroke="white" stroke-width="0.1"/>
<path d="M10.763 22.8094C10.763 23.4918 11.3179 24.0467 12.0003 24.0467C12.6828 24.0467 13.2377 23.4918 13.2377 22.8094C13.2377 22.1269 12.6828 21.5716 12.0003 21.5716C11.3178 21.5716 10.763 22.1269 10.763 22.8094ZM11.425 22.8094C11.425 22.492 11.6834 22.2341 12.0003 22.2341C12.3173 22.2341 12.5756 22.492 12.5756 22.8094C12.5756 23.1262 12.3173 23.3842 12.0003 23.3842C11.6834 23.3842 11.425 23.1262 11.425 22.8094Z" fill="white" stroke="white" stroke-width="0.1"/>
<path d="M5.23217 18.7681L5.23212 18.768C4.99824 18.5347 4.68743 18.4056 4.3568 18.4056C4.02617 18.4056 3.71534 18.5347 3.48191 18.7681C2.99926 19.2507 2.99926 20.0357 3.48191 20.5183C3.71534 20.7518 4.02617 20.8808 4.3568 20.8808C4.68743 20.8808 4.99824 20.7517 5.23212 20.5184L5.23217 20.5183C5.71433 20.0357 5.71433 19.2508 5.23217 18.7681ZM5.1968 18.8034C5.65945 19.2666 5.65945 20.0198 5.1968 20.483V18.8034ZM3.95012 19.2368C4.05889 19.128 4.20321 19.0681 4.3568 19.0681C4.51083 19.0681 4.65469 19.128 4.76347 19.2368C4.9877 19.461 4.9877 19.8259 4.76347 20.0501L4.79883 20.0855L4.76354 20.05C4.65474 20.1584 4.51084 20.2183 4.3568 20.2183C4.20312 20.2183 4.05882 20.1588 3.95012 20.0501C3.7259 19.8259 3.7259 19.461 3.95012 19.2368Z" fill="white" stroke="white" stroke-width="0.1"/>
<path d="M-0.046582 12C-0.046582 12.6825 0.508304 13.2373 1.19076 13.2373C1.87322 13.2373 2.42811 12.6825 2.42811 12C2.42811 11.3175 1.87322 10.7627 1.19076 10.7627C0.508304 10.7627 -0.046582 11.3175 -0.046582 12ZM0.615449 12C0.615449 11.6831 0.873845 11.4247 1.19076 11.4247C1.50812 11.4247 1.76607 11.6831 1.76607 12C1.76607 12.3169 1.50768 12.5753 1.19076 12.5753C0.873845 12.5753 0.615449 12.3169 0.615449 12Z" fill="white" stroke="white" stroke-width="0.1"/>
<path d="M3.51727 3.51703C3.74133 3.2925 4.03945 3.16922 4.3568 3.16922C4.67414 3.16922 4.97227 3.29297 5.1968 3.51703V5.19656C4.97227 5.42063 4.67414 5.54391 4.3568 5.54391C4.03945 5.54391 3.74133 5.42063 3.51727 5.19656C3.05414 4.73344 3.05414 3.98016 3.51727 3.51703ZM3.51727 3.51703L3.48191 3.48168C2.99926 3.96433 2.99926 4.74927 3.48191 5.23192C3.71537 5.46538 4.02623 5.59391 4.3568 5.59391C4.68738 5.59391 4.99821 5.46538 5.23212 5.23196L5.23217 5.2319C5.71433 4.74925 5.71433 3.96434 5.23217 3.48169L5.23212 3.48164C4.99824 3.24826 4.68743 3.11922 4.3568 3.11922C4.02622 3.11922 3.71535 3.24775 3.48187 3.48171L3.51727 3.51703ZM3.95012 3.94989C4.05882 3.84119 4.20312 3.78172 4.3568 3.78172C4.51093 3.78172 4.65476 3.84117 4.76347 3.94989C4.9877 4.17411 4.9877 4.53902 4.76347 4.76324C4.65469 4.87202 4.51083 4.93188 4.3568 4.93188C4.20321 4.93188 4.05889 4.87201 3.95012 4.76324C3.7259 4.53902 3.7259 4.17411 3.95012 3.94989Z" fill="white" stroke="white" stroke-width="0.1"/>
</g>
<defs>
<clipPath id="clip0_7_596">
<rect width="24" height="24" fill="white"/>
</clipPath>
</defs>
</svg>
