<svg width="17" height="18" viewBox="0 0 17 18" fill="none" xmlns="http://www.w3.org/2000/svg">
<path d="M8.3335 18C6.61108 18 5.2085 16.5983 5.2085 14.875C5.2085 14.53 5.48849 14.25 5.8335 14.25C6.1785 14.25 6.4585 14.53 6.4585 14.875C6.4585 15.9092 7.30017 16.75 8.3335 16.75C9.36682 16.75 10.2085 15.9092 10.2085 14.875C10.2085 14.53 10.4885 14.25 10.8335 14.25C11.1785 14.25 11.4585 14.53 11.4585 14.875C11.4585 16.5983 10.0561 18 8.3335 18Z" fill="#5F6368"/>
<path d="M15.2083 15.5H1.45828C0.654145 15.5 0 14.8458 0 14.0417C0 13.6149 0.185852 13.2108 0.509949 12.9333C0.530854 12.915 0.553284 12.8983 0.57663 12.8832C1.79993 11.8157 2.5 10.2799 2.5 8.65823V6.33324C2.5 3.61916 4.33914 1.28914 6.97251 0.666586C7.30912 0.589071 7.64588 0.794912 7.72507 1.13167C7.80411 1.46752 7.59583 1.80413 7.2609 1.88332C5.19333 2.3716 3.75 4.20159 3.75 6.33324V8.65823C3.75 10.6716 2.86743 12.5767 1.33087 13.8841C1.31836 13.8941 1.30753 13.9033 1.2941 13.9124C1.27167 13.9408 1.25 13.9842 1.25 14.0417C1.25 14.1549 1.34506 14.25 1.45828 14.25H15.2083C15.3217 14.25 15.4167 14.1549 15.4167 14.0417C15.4167 13.9832 15.3951 13.9408 15.3717 13.9124C15.3592 13.9033 15.3474 13.8941 15.3359 13.8841C14.5892 13.2475 13.9999 12.4792 13.5851 11.6C13.4367 11.2882 13.57 10.9158 13.8825 10.7674C14.1975 10.6191 14.5667 10.7542 14.7142 11.0658C15.0441 11.7625 15.5066 12.3742 16.0916 12.8858C16.1133 12.9008 16.1359 12.9167 16.1549 12.9333C16.4809 13.2108 16.6667 13.6149 16.6667 14.0417C16.6667 14.8458 16.0126 15.5 15.2083 15.5Z" fill="#5F6368"/>
</svg>
