<svg width="18" height="18" viewBox="0 0 18 18" fill="none" xmlns="http://www.w3.org/2000/svg">
<path d="M17.4497 16.7427L13.5433 12.8363C14.7423 11.4691 15.4038 9.73917 15.4038 7.90381C15.4038 5.90039 14.6235 4.01709 13.207 2.60059C11.7905 1.18408 9.90723 0.403809 7.90381 0.403809C5.90039 0.403809 4.01709 1.18408 2.60059 2.60059C1.18408 4.01709 0.403809 5.90039 0.403809 7.90381C0.403809 9.90723 1.18408 11.7905 2.60059 13.207C4.01709 14.6235 5.90039 15.4038 7.90381 15.4038C9.73917 15.4038 11.4691 14.7423 12.8363 13.5433L16.7427 17.4497C16.8403 17.5474 16.9683 17.5962 17.0962 17.5962C17.2241 17.5962 17.3521 17.5474 17.4497 17.4497C17.645 17.2544 17.645 16.938 17.4497 16.7427ZM3.30762 12.5C2.08008 11.2722 1.40381 9.63989 1.40381 7.90381C1.40381 6.16772 2.08008 4.5354 3.30762 3.30762C4.5354 2.08008 6.16772 1.40381 7.90381 1.40381C9.63989 1.40381 11.2722 2.08008 12.5 3.30762C13.7275 4.5354 14.4038 6.16772 14.4038 7.90381C14.4038 9.63989 13.7275 11.2722 12.5 12.5C11.2722 13.7275 9.63989 14.4038 7.90381 14.4038C6.16772 14.4038 4.5354 13.7275 3.30762 12.5Z" fill="black"/>
</svg>
