<svg width="40" height="40" viewBox="0 0 40 40" fill="none" xmlns="http://www.w3.org/2000/svg">
<path d="M20 25C22.7614 25 25 22.7614 25 20C25 17.2386 22.7614 15 20 15C17.2386 15 15 17.2386 15 20C15 22.7614 17.2386 25 20 25Z" stroke="white" stroke-width="2" stroke-linecap="round" stroke-linejoin="round"/>
<path d="M32.3333 24.9994C32.1114 25.502 32.0453 26.0597 32.1433 26.6003C32.2413 27.141 32.4991 27.6399 32.8833 28.0327L32.9833 28.1327C33.2932 28.4423 33.5391 28.8099 33.7068 29.2145C33.8746 29.6192 33.9609 30.053 33.9609 30.491C33.9609 30.9291 33.8746 31.3628 33.7068 31.7675C33.5391 32.1721 33.2932 32.5398 32.9833 32.8493C32.6737 33.1593 32.3061 33.4051 31.9014 33.5729C31.4968 33.7406 31.063 33.827 30.625 33.827C30.1869 33.827 29.7532 33.7406 29.3485 33.5729C28.9438 33.4051 28.5762 33.1593 28.2666 32.8493L28.1666 32.7493C27.7738 32.3651 27.2749 32.1074 26.7343 32.0093C26.1936 31.9113 25.636 31.9775 25.1333 32.1993C24.6403 32.4106 24.2199 32.7614 23.9238 33.2086C23.6277 33.6557 23.4688 34.1797 23.4666 34.716V34.9994C23.4666 35.8834 23.1154 36.7313 22.4903 37.3564C21.8652 37.9815 21.0173 38.3327 20.1333 38.3327C19.2492 38.3327 18.4014 37.9815 17.7763 37.3564C17.1512 36.7313 16.8 35.8834 16.8 34.9994V34.8494C16.7871 34.2977 16.6085 33.7627 16.2875 33.3139C15.9665 32.865 15.5179 32.5232 15 32.3327C14.4973 32.1108 13.9396 32.0446 13.399 32.1427C12.8583 32.2407 12.3594 32.4985 11.9666 32.8827L11.8666 32.9827C11.557 33.2926 11.1894 33.5385 10.7848 33.7062C10.3801 33.874 9.94634 33.9603 9.50829 33.9603C9.07024 33.9603 8.63649 33.874 8.23183 33.7062C7.82716 33.5385 7.45954 33.2926 7.14996 32.9827C6.84004 32.6731 6.59417 32.3055 6.42643 31.9008C6.25868 31.4962 6.17234 31.0624 6.17234 30.6244C6.17234 30.1863 6.25868 29.7525 6.42643 29.3479C6.59417 28.9432 6.84004 28.5756 7.14996 28.266L7.24996 28.166C7.63419 27.7732 7.89194 27.2743 7.98997 26.7337C8.088 26.193 8.02182 25.6354 7.79996 25.1327C7.58869 24.6397 7.23789 24.2193 6.79074 23.9232C6.34358 23.6271 5.8196 23.4682 5.28329 23.466H4.99996C4.1159 23.466 3.26806 23.1148 2.64294 22.4897C2.01782 21.8646 1.66663 21.0167 1.66663 20.1327C1.66663 19.2486 2.01782 18.4008 2.64294 17.7757C3.26806 17.1505 4.1159 16.7993 4.99996 16.7993H5.14996C5.70162 16.7864 6.23663 16.6079 6.68546 16.2869C7.13428 15.9659 7.47615 15.5172 7.66663 14.9993C7.88848 14.4967 7.95467 13.939 7.85663 13.3984C7.7586 12.8577 7.50085 12.3588 7.11663 11.966L7.01663 11.866C6.7067 11.5564 6.46084 11.1888 6.29309 10.7842C6.12535 10.3795 6.039 9.94573 6.039 9.50768C6.039 9.06963 6.12535 8.63588 6.29309 8.23121C6.46084 7.82655 6.7067 7.45893 7.01663 7.14935C7.3262 6.83943 7.69383 6.59356 8.09849 6.42582C8.50315 6.25807 8.93691 6.17173 9.37496 6.17173C9.81301 6.17173 10.2468 6.25807 10.6514 6.42582C11.0561 6.59356 11.4237 6.83943 11.7333 7.14935L11.8333 7.24935C12.2261 7.63358 12.725 7.89133 13.2656 7.98936C13.8063 8.08739 14.3639 8.02121 14.8666 7.79935H15C15.4929 7.58808 15.9133 7.23727 16.2094 6.79012C16.5056 6.34297 16.6645 5.81899 16.6666 5.28268V4.99935C16.6666 4.11529 17.0178 3.26745 17.6429 2.64233C18.2681 2.01721 19.1159 1.66602 20 1.66602C20.884 1.66602 21.7319 2.01721 22.357 2.64233C22.9821 3.26745 23.3333 4.11529 23.3333 4.99935V5.14935C23.3354 5.68566 23.4943 6.20964 23.7905 6.65679C24.0866 7.10394 24.507 7.45474 25 7.66602C25.5027 7.88787 26.0603 7.95405 26.6009 7.85602C27.1416 7.75799 27.6405 7.50024 28.0333 7.11602L28.1333 7.01602C28.4429 6.70609 28.8105 6.46023 29.2152 6.29248C29.6198 6.12474 30.0536 6.03839 30.4916 6.03839C30.9297 6.03839 31.3634 6.12474 31.7681 6.29248C32.1728 6.46023 32.5404 6.70609 32.85 7.01602C33.1599 7.32559 33.4057 7.69322 33.5735 8.09788C33.7412 8.50254 33.8276 8.9363 33.8276 9.37435C33.8276 9.8124 33.7412 10.2462 33.5735 10.6508C33.4057 11.0555 33.1599 11.4231 32.85 11.7327L32.75 11.8327C32.3657 12.2255 32.108 12.7244 32.01 13.265C31.9119 13.8057 31.9781 14.3633 32.2 14.866V14.9993C32.4112 15.4923 32.762 15.9127 33.2092 16.2088C33.6563 16.505 34.1803 16.6639 34.7166 16.666H35C35.884 16.666 36.7319 17.0172 37.357 17.6423C37.9821 18.2674 38.3333 19.1153 38.3333 19.9993C38.3333 20.8834 37.9821 21.7313 37.357 22.3564C36.7319 22.9815 35.884 23.3327 35 23.3327H34.85C34.3136 23.3348 33.7897 23.4937 33.3425 23.7899C32.8954 24.086 32.5446 24.5064 32.3333 24.9994Z" stroke="white" stroke-width="2" stroke-linecap="round" stroke-linejoin="round"/>
</svg>
