<svg width="24" height="24" viewBox="0 0 24 24" fill="none" xmlns="http://www.w3.org/2000/svg">
<path fill-rule="evenodd" clip-rule="evenodd" d="M6.83769 19.8406H3.75797C3.36399 19.8406 3.07077 19.7219 2.80366 19.526C2.45985 19.2738 2.29133 19.1135 2.0775 18.7944C1.89242 18.5181 1.77082 18.2701 1.65802 17.6848C1.53595 17.0512 1.64164 14.0533 1.65091 13.7991C1.5806 12.2818 3.00837 11.4509 4.08592 11.1549C4.53566 11.0313 5.00715 10.952 5.47618 10.9064C4.7087 10.4423 4.15684 9.43148 4.15684 8.03562C4.15684 7.02922 4.46037 6.44993 4.89171 6.11035C5.31632 5.77609 5.89307 5.67007 6.52216 5.67007C7.15759 5.67007 7.71524 5.77944 8.11995 6.11713C8.52545 6.45548 8.8055 7.03285 8.8055 8.03562C8.8055 9.42118 8.26178 10.4273 7.50315 10.896C7.97383 10.9383 8.44051 11.0187 8.88875 11.1585C9.06507 11.2135 9.24498 11.2801 9.42267 11.359C9.50809 10.6569 9.77557 10.2183 10.1287 9.94033C10.5533 9.60602 11.13 9.5 11.7591 9.5C12.3945 9.5 12.9522 9.60936 13.3569 9.94706C13.7315 10.2597 13.9991 10.7762 14.0376 11.6438C14.4141 11.4155 14.8238 11.2549 15.1879 11.1549C15.6376 11.0313 16.1091 10.952 16.5782 10.9064C15.8107 10.4423 15.2588 9.43148 15.2588 8.03562C15.2588 7.02922 15.5623 6.44993 15.9937 6.11035C16.4183 5.77609 16.9951 5.67007 17.6241 5.67007C18.2596 5.67007 18.8172 5.77944 19.2219 6.11713C19.6274 6.45548 19.9075 7.03285 19.9075 8.03562C19.9075 9.42118 19.3638 10.4273 18.6051 10.896C19.0758 10.9383 19.5425 11.0187 19.9907 11.1585C21.1271 11.5129 22.3708 12.357 22.3729 13.7923C22.3753 13.9143 22.4354 17.0752 22.3713 17.7536C22.3095 18.407 22.0776 18.7661 21.9848 18.8924C21.8791 19.036 21.5649 19.3631 21.2955 19.5163C21.0111 19.678 20.6529 19.8406 20.284 19.8406H16.5349C16.5381 20.5864 16.533 21.3007 16.5063 21.5836C16.4445 22.2369 16.2126 22.596 16.1198 22.7223C16.0141 22.866 15.6999 23.193 15.4305 23.3463C15.1461 23.508 14.7879 23.6706 14.419 23.6706H8.99491C8.60093 23.6706 8.30771 23.5519 8.0406 23.356C7.69679 23.1037 7.52827 22.9434 7.31444 22.6243C7.12936 22.348 7.00776 22.1 6.89496 21.5147C6.84362 21.2482 6.8326 20.5635 6.83769 19.8406ZM9.40395 12.189C9.16409 12.0566 8.90997 11.9538 8.66456 11.8773C7.9838 11.6649 7.25524 11.6092 6.54211 11.6092C5.8094 11.6092 5.01604 11.6801 4.2854 11.8809C3.86249 11.9971 3.3599 12.2071 2.9727 12.5406C2.62644 12.8389 2.37496 13.2416 2.40362 13.776C2.40427 13.7877 2.40432 13.7993 2.4039 13.811C2.4039 13.811 2.27547 16.9096 2.39736 17.5423C2.48173 17.9801 2.56456 18.1686 2.70305 18.3752C2.86286 18.6138 2.99204 18.7304 3.24903 18.9189C3.31962 18.9707 3.39359 19.0126 3.47576 19.0417V14.278C3.47576 14.0702 3.64446 13.9015 3.85223 13.9015C4.06004 13.9015 4.2287 14.0702 4.2287 14.278V19.0877H6.8479C6.86178 18.3635 6.88385 17.7391 6.88785 17.629C6.82987 16.3778 7.79058 15.5934 8.73359 15.1907V14.278C8.73359 14.0702 8.9023 13.9015 9.11006 13.9015C9.31787 13.9015 9.48653 14.0702 9.48653 14.278V14.942C9.88635 14.8426 10.3007 14.7765 10.7131 14.7364C10.0063 14.3089 9.4823 13.4177 9.40395 12.189ZM13.9843 12.6229C13.825 13.6188 13.3526 14.3476 12.7401 14.726C13.2108 14.7682 13.6775 14.8487 14.1257 14.9884C14.2755 15.0352 14.4272 15.0904 14.5777 15.1544V14.278C14.5777 14.0702 14.7464 13.9015 14.9542 13.9015C15.162 13.9015 15.3307 14.0702 15.3307 14.278V15.5656C15.9961 16.0265 16.5065 16.7032 16.5079 17.6223C16.5089 17.6761 16.5213 18.3234 16.5292 19.0877H19.8356V14.278C19.8356 14.0702 20.0043 13.9015 20.212 13.9015C20.4198 13.9015 20.5885 14.0702 20.5885 14.278V19.0272C20.7095 18.9822 20.8227 18.9191 20.9233 18.8618C21.1018 18.7603 21.3082 18.5415 21.3782 18.4463C21.4401 18.3621 21.5805 18.1182 21.6217 17.6828C21.6856 17.006 21.6201 13.8037 21.6201 13.8037C21.62 13.8012 21.62 13.7987 21.62 13.7962C21.62 12.717 20.6203 12.1435 19.7665 11.8773C19.0858 11.6649 18.3572 11.6092 17.6441 11.6092C16.9114 11.6092 16.118 11.6801 15.3874 11.8809C14.9307 12.0064 14.3792 12.2402 13.9843 12.6229ZM11.7181 14.2676C12.6275 14.2676 13.2895 13.2977 13.2895 11.8656C13.2895 11.1749 13.1538 10.7582 12.8745 10.5252C12.5944 10.2915 12.1989 10.2529 11.7591 10.2529C11.313 10.2529 10.8955 10.2949 10.5944 10.532C10.2999 10.7638 10.1467 11.1785 10.1467 11.8656C10.1467 13.2977 10.8087 14.2676 11.7181 14.2676ZM17.5831 10.4377C18.4925 10.4377 19.1545 9.46781 19.1545 8.03562C19.1545 7.34499 19.0188 6.92828 18.7395 6.69525C18.4595 6.46155 18.0639 6.42301 17.6241 6.42301C17.178 6.42301 16.7606 6.46494 16.4594 6.70198C16.165 6.93379 16.0118 7.34861 16.0118 8.03562C16.0118 9.46781 16.6737 10.4377 17.5831 10.4377ZM14.7235 22.8571C14.8445 22.8122 14.9576 22.749 15.0583 22.6918C15.2368 22.5902 15.4431 22.3714 15.5132 22.2762C15.5751 22.1921 15.7155 21.9481 15.7567 21.5128C15.8206 20.8359 15.755 17.6337 15.755 17.6337C15.755 17.6312 15.755 17.6287 15.755 17.6262C15.755 16.547 14.7552 15.9735 13.9015 15.7072C13.2207 15.4949 12.4922 15.4392 11.7791 15.4392C11.0463 15.4392 10.253 15.5101 9.52239 15.7109C9.09943 15.8271 8.59684 16.0371 8.20964 16.3706C7.86338 16.6688 7.6119 17.0716 7.64056 17.606C7.64122 17.6176 7.64131 17.6293 7.64084 17.641C7.64084 17.641 7.51242 20.7396 7.6343 21.3722C7.71868 21.8101 7.80155 21.9986 7.93999 22.2052C8.0998 22.4437 8.22898 22.5603 8.48597 22.7488C8.55656 22.8006 8.63053 22.8425 8.71275 22.8716V18.1079C8.71275 17.9001 8.8814 17.7314 9.08922 17.7314C9.29698 17.7314 9.46569 17.9001 9.46569 18.1079V22.9176H13.9705V18.1079C13.9705 17.9001 14.1392 17.7314 14.347 17.7314C14.5548 17.7314 14.7235 17.9001 14.7235 18.1079V22.8571ZM6.48117 10.4377C7.39053 10.4377 8.05256 9.46781 8.05256 8.03562C8.05256 7.34499 7.91684 6.92828 7.63755 6.69525C7.3575 6.46155 6.96187 6.42301 6.52216 6.42301C6.07604 6.42301 5.65858 6.46494 5.35745 6.70198C5.063 6.93379 4.90978 7.34861 4.90978 8.03562C4.90978 9.46781 5.57176 10.4377 6.48117 10.4377ZM12.0617 1.52188C12.0617 1.72965 11.8931 1.89835 11.6853 1.89835C11.4775 1.89835 11.3088 1.72965 11.3088 1.52188V0.705882C11.3088 0.498117 11.4775 0.329412 11.6853 0.329412C11.8931 0.329412 12.0617 0.498117 12.0617 0.705882V1.52188ZM9.39863 2.03384C9.50239 2.21384 9.44046 2.44424 9.26046 2.548C9.08042 2.65172 8.85002 2.58984 8.7463 2.40979L8.33886 1.70292C8.2351 1.52287 8.29703 1.29252 8.47703 1.18875C8.65707 1.08499 8.88748 1.14692 8.99119 1.32692L9.39863 2.03384ZM7.34912 3.80875C7.52898 3.91275 7.59063 4.1432 7.48667 4.32311C7.38267 4.50301 7.15223 4.56461 6.97232 4.46066L6.26545 4.05205C6.08555 3.94809 6.0239 3.71765 6.1279 3.53774C6.23185 3.35784 6.46235 3.29619 6.6422 3.40019L7.34912 3.80875ZM14.6229 2.41021C14.5189 2.59007 14.2885 2.65172 14.1086 2.54776C13.9287 2.44376 13.867 2.21332 13.971 2.03341L14.3796 1.32654C14.4836 1.14663 14.714 1.08499 14.8939 1.18899C15.0738 1.29294 15.1354 1.52343 15.0315 1.70329L14.6229 2.41021ZM16.3985 4.46052C16.2187 4.56461 15.9881 4.50315 15.884 4.32334C15.7799 4.14353 15.8414 3.91299 16.0212 3.80889L16.727 3.40033C16.9068 3.29624 17.1373 3.35769 17.2414 3.53751C17.3455 3.71732 17.284 3.94781 17.1042 4.05195L16.3985 4.46052Z" fill="white"/>
</svg>
