<svg width="22" height="22" viewBox="0 0 22 22" fill="none" xmlns="http://www.w3.org/2000/svg">
<path d="M12.5 15.5H9.5C7.0188 15.5 5 17.5188 5 20V20.5C5 21.3271 5.67285 22 6.5 22H15.5C16.3271 22 17 21.3271 17 20.5V20C17 17.5188 14.9812 15.5 12.5 15.5ZM16 20.5C16 20.7756 15.7756 21 15.5 21H14V19C14 18.7239 13.7761 18.5 13.5 18.5C13.2239 18.5 13 18.7239 13 19V21H9V19C9 18.7239 8.77612 18.5 8.5 18.5C8.22388 18.5 8 18.7239 8 19V21H6.5C6.22437 21 6 20.7756 6 20.5V20C6 18.0701 7.57007 16.5 9.5 16.5H12.5C14.4299 16.5 16 18.0701 16 20V20.5ZM11 14.5C12.9299 14.5 14.5 12.9299 14.5 11C14.5 9.07007 12.9299 7.5 11 7.5C9.07007 7.5 7.5 9.07007 7.5 11C7.5 12.9299 9.07007 14.5 11 14.5ZM11 8.5C12.3784 8.5 13.5 9.62158 13.5 11C13.5 12.3784 12.3784 13.5 11 13.5C9.62158 13.5 8.5 12.3784 8.5 11C8.5 9.62158 9.62158 8.5 11 8.5Z" fill="white"/>
<path d="M22 12.5V13C22 13.8271 21.3271 14.5 20.5 14.5H14.781C14.5049 14.5 14.281 14.2761 14.281 14C14.281 13.7239 14.5049 13.5 14.781 13.5H20.5C20.7756 13.5 21 13.2756 21 13V12.5C21 10.5701 19.4299 9 17.5 9H14.5C14.2239 9 14 8.77612 14 8.5C14 8.22388 14.2239 8 14.5 8H17.5C19.9812 8 22 10.0188 22 12.5ZM16 7C14.0701 7 12.5 5.42993 12.5 3.5C12.5 1.57007 14.0701 0 16 0C17.9299 0 19.5 1.57007 19.5 3.5C19.5 5.42993 17.9299 7 16 7ZM16 6C17.3784 6 18.5 4.87842 18.5 3.5C18.5 2.12158 17.3784 1 16 1C14.6216 1 13.5 2.12158 13.5 3.5C13.5 4.87842 14.6216 6 16 6ZM7.5 8H4.5C2.0188 8 0 10.0188 0 12.5V13C0 13.8271 0.672852 14.5 1.5 14.5H7.21899C7.49512 14.5 7.71899 14.2761 7.71899 14C7.71899 13.7239 7.49512 13.5 7.21899 13.5H1.5C1.22437 13.5 1 13.2756 1 13V12.5C1 10.5701 2.57007 9 4.5 9H7.5C7.77612 9 8 8.77612 8 8.5C8 8.22388 7.77612 8 7.5 8ZM9.5 3.5C9.5 5.42993 7.92993 7 6 7C4.07007 7 2.5 5.42993 2.5 3.5C2.5 1.57007 4.07007 0 6 0C7.92993 0 9.5 1.57007 9.5 3.5ZM8.5 3.5C8.5 2.12158 7.37842 1 6 1C4.62158 1 3.5 2.12158 3.5 3.5C3.5 4.87842 4.62158 6 6 6C7.37842 6 8.5 4.87842 8.5 3.5Z" fill="white"/>
</svg>
